<svg width="11" height="16" viewBox="0 0 11 16" fill="none" xmlns="http://www.w3.org/2000/svg">
<path fill-rule="evenodd" clip-rule="evenodd" d="M5.58984 0.881479C5.43719 0.75921 5.21627 0.759535 5.064 0.882254L1.25946 3.94848C0.978335 4.17506 0.815754 4.51093 0.815754 4.86512V8.97375L2.23722 10.1091V5.63369C2.23722 5.28105 2.39889 4.94661 2.67854 4.72075L4.92223 2.90862C5.15078 2.72403 5.48325 2.72515 5.71047 2.91129L9.24459 5.8064L10.0224 5.2031C10.2377 5.03609 10.2371 4.60404 10.0248 4.43367L5.58984 0.881479ZM6.10975 0.272719C5.65468 -0.091775 4.99611 -0.0908045 4.54218 0.27503L0.737643 3.34126C0.270283 3.71792 0 4.27629 0 4.86512V9.15998C0 9.27791 0.0544098 9.38967 0.148353 9.46471L2.38557 11.2516C2.64627 11.4599 3.05297 11.2742 3.05297 10.9469V5.63369C3.05297 5.5154 3.1072 5.40321 3.20101 5.32745L5.31378 3.62106L8.59579 6.30963L6.61142 7.84877C5.6072 8.62767 5.58508 10.1 6.56548 10.9069L6.57424 10.9141C5.60186 11.6997 5.5915 13.1487 6.56086 13.9464L8.94488 15.9084C9.20445 16.1221 9.61689 15.9373 9.61689 15.6075V12.5641C9.61689 12.4482 9.56433 12.3382 9.47314 12.2631L7.85334 10.93L10.5427 8.83114C10.8319 8.60547 11 8.26516 11 7.90553V4.7491C11 4.39476 10.8368 4.05888 10.5548 3.83305L6.10975 0.272719ZM10.1842 6.08971L7.12138 8.46537C6.51731 8.9339 6.50401 9.81954 7.09374 10.3049L7.22058 10.4093L10.0309 8.21602C10.1279 8.14032 10.1842 8.02617 10.1842 7.90553V6.08971ZM7.20677 11.4347L7.11385 11.5072C6.51242 11.9765 6.50053 12.86 7.08912 13.3444L8.80113 14.7534V12.7468L7.20677 11.4347Z" fill="#68CFF6"/>
</svg>
