<svg width="24" height="24" viewBox="0 0 24 24" fill="none" xmlns="http://www.w3.org/2000/svg">
<g clip-path="url(#clip0_518_22655)">
<path fill-rule="evenodd" clip-rule="evenodd" d="M16.374 19.9389L22.2226 11.166C22.4524 10.8213 22.3592 10.3557 22.0146 10.1259C21.8914 10.0438 21.7466 9.99997 21.5986 9.99997H17V4.47705C17 4.06284 16.6642 3.72705 16.25 3.72705C15.9992 3.72705 15.765 3.85238 15.6259 4.06103L9.77732 12.8339C9.54755 13.1786 9.64068 13.6442 9.98533 13.874C10.1085 13.9561 10.2533 14 10.4014 14H15V19.5229C15 19.9371 15.3358 20.2729 15.75 20.2729C16.0007 20.2729 16.2349 20.1476 16.374 19.9389Z" fill="#68CFF6"/>
<path opacity="0.3" fill-rule="evenodd" clip-rule="evenodd" d="M4.5 5H9.5C10.3284 5 11 5.67157 11 6.5C11 7.32843 10.3284 8 9.5 8H4.5C3.67157 8 3 7.32843 3 6.5C3 5.67157 3.67157 5 4.5 5ZM4.5 17H9.5C10.3284 17 11 17.6716 11 18.5C11 19.3284 10.3284 20 9.5 20H4.5C3.67157 20 3 19.3284 3 18.5C3 17.6716 3.67157 17 4.5 17ZM2.5 11H6.5C7.32843 11 8 11.6716 8 12.5C8 13.3284 7.32843 14 6.5 14H2.5C1.67157 14 1 13.3284 1 12.5C1 11.6716 1.67157 11 2.5 11Z" fill="#68CFF6"/>
</g>
<defs>
<clipPath id="clip0_518_22655">
<rect width="24" height="24" fill="white"/>
</clipPath>
</defs>
</svg>
